<?xml version="1.0" encoding="utf-8"?>
<!-- Generator: Adobe Illustrator 17.0.0, SVG Export Plug-In . SVG Version: 6.00 Build 0)  -->
<!DOCTYPE svg PUBLIC "-//W3C//DTD SVG 1.1//EN" "http://www.w3.org/Graphics/SVG/1.1/DTD/svg11.dtd">
<svg version="1.1" xmlns="http://www.w3.org/2000/svg" xmlns:xlink="http://www.w3.org/1999/xlink" x="0px" y="0px"
	 width="35px" height="35px" viewBox="0 0 35 35" enable-background="new 0 0 35 35" xml:space="preserve">
<path fill-rule="evenodd" clip-rule="evenodd" d="M17.5,0C27.165,0,35,7.835,35,17.5S27.165,35,17.5,35S0,27.165,0,17.5
	S7.835,0,17.5,0z"/>
<path fill="#FFFFFF" d="M22.097,10.348c-1.228-1.191-2.86-1.846-4.596-1.846c-1.736,0-3.368,0.655-4.596,1.846
	c-2.272,2.202-2.554,6.347-0.611,8.858l5.208,7.293l5.2-7.283C24.651,16.695,24.369,12.55,22.097,10.348z M17.561,17.047
	c-1.308,0-2.373-1.033-2.373-2.301s1.065-2.301,2.373-2.301c1.308,0,2.373,1.033,2.373,2.301S18.869,17.047,17.561,17.047z"/>
</svg>
